<mxfile host="65bd71144e">
    <diagram id="5x8ZrD3Ehn-DCcHiLFJ-" name="Страница 1">
        <mxGraphModel dx="1132" dy="493" grid="1" gridSize="10" guides="1" tooltips="1" connect="1" arrows="1" fold="1" page="1" pageScale="1" pageWidth="827" pageHeight="1169" math="0" shadow="0">
            <root>
                <mxCell id="0"/>
                <mxCell id="1" parent="0"/>
                <mxCell id="2" value="«interface»&lt;br&gt;" style="html=1;" parent="1" vertex="1">
                    <mxGeometry x="558" y="50" width="110" height="50" as="geometry"/>
                </mxCell>
                <mxCell id="3" value="Computer" style="swimlane;fontStyle=1;align=center;verticalAlign=top;childLayout=stackLayout;horizontal=1;startSize=26;horizontalStack=0;resizeParent=1;resizeParentMax=0;resizeLast=0;collapsible=1;marginBottom=0;" parent="1" vertex="1">
                    <mxGeometry x="420" y="180" width="386" height="258" as="geometry"/>
                </mxCell>
                <mxCell id="4" value="&amp;nbsp; - $company: Company;&lt;br&gt;&amp;nbsp; - $model: string;&lt;br&gt;&amp;nbsp; - $cpu: string;&lt;br&gt;&amp;nbsp; - $ram:string&lt;br&gt;&amp;nbsp; - $rom: string;&lt;br&gt;&amp;nbsp; - $video_card: string;&lt;br&gt;&amp;nbsp; - $accessories: array;" style="text;strokeColor=none;fillColor=none;align=left;verticalAlign=top;spacingLeft=4;spacingRight=4;overflow=hidden;rotatable=0;points=[[0,0.5],[1,0.5]];portConstraint=eastwest;html=1;" parent="3" vertex="1">
                    <mxGeometry y="26" width="386" height="114" as="geometry"/>
                </mxCell>
                <mxCell id="5" value="" style="line;strokeWidth=1;fillColor=none;align=left;verticalAlign=middle;spacingTop=-1;spacingLeft=3;spacingRight=3;rotatable=0;labelPosition=right;points=[];portConstraint=eastwest;" parent="3" vertex="1">
                    <mxGeometry y="140" width="386" height="8" as="geometry"/>
                </mxCell>
                <mxCell id="6" value="+ __construct(in: $company: Company, $model: string,&amp;nbsp; &lt;br&gt;$cpu: string, $ram: string, $rom: string, $video_card: string);&lt;br&gt;+&amp;nbsp;addAccessories(in $accessory: string) : void;&lt;br&gt;+ __clone(): void;&lt;br&gt;+ view(): void;&lt;br&gt;&lt;br&gt;" style="text;strokeColor=none;fillColor=none;align=left;verticalAlign=top;spacingLeft=4;spacingRight=4;overflow=hidden;rotatable=0;points=[[0,0.5],[1,0.5]];portConstraint=eastwest;html=1;" parent="3" vertex="1">
                    <mxGeometry y="148" width="386" height="110" as="geometry"/>
                </mxCell>
                <mxCell id="7" value="Company" style="swimlane;fontStyle=1;align=center;verticalAlign=top;childLayout=stackLayout;horizontal=1;startSize=26;horizontalStack=0;resizeParent=1;resizeParentMax=0;resizeLast=0;collapsible=1;marginBottom=0;html=1;" parent="1" vertex="1">
                    <mxGeometry x="20" y="230" width="253" height="170" as="geometry"/>
                </mxCell>
                <mxCell id="8" value="- $name: string;" style="text;strokeColor=none;fillColor=none;align=left;verticalAlign=top;spacingLeft=4;spacingRight=4;overflow=hidden;rotatable=0;points=[[0,0.5],[1,0.5]];portConstraint=eastwest;" parent="7" vertex="1">
                    <mxGeometry y="26" width="253" height="26" as="geometry"/>
                </mxCell>
                <mxCell id="9" value="" style="line;strokeWidth=1;fillColor=none;align=left;verticalAlign=middle;spacingTop=-1;spacingLeft=3;spacingRight=3;rotatable=0;labelPosition=right;points=[];portConstraint=eastwest;" parent="7" vertex="1">
                    <mxGeometry y="52" width="253" height="8" as="geometry"/>
                </mxCell>
                <mxCell id="10" value="&amp;nbsp;- __construct(in $name: string);&lt;br&gt;&amp;nbsp;+ ddComputer($computer: Computer): void;" style="text;strokeColor=none;fillColor=none;align=left;verticalAlign=top;spacingLeft=4;spacingRight=4;overflow=hidden;rotatable=0;points=[[0,0.5],[1,0.5]];portConstraint=eastwest;html=1;" parent="7" vertex="1">
                    <mxGeometry y="60" width="253" height="110" as="geometry"/>
                </mxCell>
                <mxCell id="12" value="App&lt;br&gt;" style="html=1;" parent="1" vertex="1">
                    <mxGeometry x="220" y="50" width="110" height="50" as="geometry"/>
                </mxCell>
                <mxCell id="13" value="" style="endArrow=block;dashed=1;endFill=0;endSize=12;html=1;entryX=0.5;entryY=1;entryDx=0;entryDy=0;exitX=0.5;exitY=0;exitDx=0;exitDy=0;" parent="1" source="3" target="2" edge="1">
                    <mxGeometry width="160" relative="1" as="geometry">
                        <mxPoint x="450" y="160" as="sourcePoint"/>
                        <mxPoint x="610" y="160" as="targetPoint"/>
                    </mxGeometry>
                </mxCell>
                <mxCell id="14" value="" style="endArrow=open;html=1;endSize=12;startArrow=diamondThin;startSize=14;startFill=0;edgeStyle=orthogonalEdgeStyle;align=left;verticalAlign=bottom;exitX=1;exitY=0.5;exitDx=0;exitDy=0;entryX=0;entryY=0.5;entryDx=0;entryDy=0;" parent="1" source="12" target="2" edge="1">
                    <mxGeometry x="-0.9123" y="15" relative="1" as="geometry">
                        <mxPoint x="360" y="80" as="sourcePoint"/>
                        <mxPoint x="520" y="80" as="targetPoint"/>
                        <mxPoint as="offset"/>
                    </mxGeometry>
                </mxCell>
                <mxCell id="15" value="1" style="endArrow=open;html=1;endSize=12;startArrow=diamondThin;startSize=14;startFill=0;edgeStyle=orthogonalEdgeStyle;align=left;verticalAlign=bottom;exitX=-0.005;exitY=-0.009;exitDx=0;exitDy=0;exitPerimeter=0;entryX=1.02;entryY=0.218;entryDx=0;entryDy=0;entryPerimeter=0;" edge="1" parent="1" source="6" target="10">
                    <mxGeometry x="-1" y="3" relative="1" as="geometry">
                        <mxPoint x="330" y="260" as="sourcePoint"/>
                        <mxPoint x="490" y="260" as="targetPoint"/>
                    </mxGeometry>
                </mxCell>
            </root>
        </mxGraphModel>
    </diagram>
</mxfile>